<svg height="512" viewBox="0 0 58 52" width="512" xmlns="http://www.w3.org/2000/svg"><g id="025---Health-Repair" fill="none" transform="translate(0 -1)"><path id="Shape" d="m58 17.25c0 10.83-6.44 15.17-10.74 19.5-2.59 2.62-16.37 15-17.61 16s-1.65-.53-8.16-6.25c-2.48-2.17-8-7-10.75-9.75-4.3-4.33-10.74-8.67-10.74-19.5s6.44-16.25 15-16.25c5.6105385-.03102989 10.7939957 2.9916957 13.53 7.89.093663.14686812.2558076.23577382.43.23577382s.336337-.0889057.43-.23577382c2.6466776-4.66451046 7.5025824-7.6437553 12.86-7.89 9.05-.18 15.75 5.29 15.75 16.25z" fill="#df4d60"/><path id="Shape" d="m55 17.25c0 10.83-5.77 15.17-9.63 19.5-2.47 2.78-14.15 14.43-15.79 16-1 .92-1.32-.42-7.31-6.26-2.25-2.19-7.13-7-9.64-9.75-3.86-4.32-9.63-8.66-9.63-19.49 0-19.44 18.83-20.35 25.57-8.36.093663.14686812.2558076.23577382.43.23577382s.336337-.0889057.43-.23577382c6.7-11.89 25.57-11.16 25.57 8.36z" fill="#ff5364"/><path id="Shape" d="m37.71 26-13.19 13.23c.5037317 2.1408787-.1398938 4.389782-1.7 5.94l-1.95 1.95c-2.11 2.11-5.59-.07-4.24-1.42l3.46-3.45c.7276416-.6945764.8539542-1.8103373.3-2.65-.3402646-.4824106-.8762703-.7898532-1.4644758-.8399953s-1.1685156.1621392-1.5855242.5799953l-3.54 3.53c-1.35 1.36-3.51-2.14-1.41-4.24l2.12-2.12c1.5234138-1.4984562 3.7288104-2.0736114 5.79-1.51l13.19-13.23c-.4977467-2.1407322.1450502-4.3867399 1.7-5.94l2-1.95c2.11-2.11 5.59.06 4.24 1.42l-3.46 3.45c-.7205896.6990329-.8423492 1.8116643-.29 2.65.3408636.4655223.866163.7611571 1.4409822.8109748s1.1431476-.1510361 1.5590178-.5509748l3.54-3.53c1.35-1.36 3.52 2.14 1.41 4.24l-2.13 2.12c-1.5234138 1.4984562-3.7288104 2.0736114-5.79 1.51z" fill="#bdc3c7"/><path id="Shape" d="m45.33 46.83c-.750273.7511082-1.768363 1.1731466-2.83 1.1731466s-2.079727-.4220384-2.83-1.1731466l-4.76-4.76 2.09-3.58 3.58-2.08 4.76 4.76c.7497841.7515993 1.1700249 1.7704352 1.1681492 2.8320727s-.4257139 2.0789821-1.1781492 2.8279273z" fill="#e57e25"/><path id="Shape" d="m17 21.31 16.5 16.52 2.23-.73.6-2.1-16.52-16.52-2.2.69z" fill="#95a5a5"/><path id="Shape" d="m40.57 36.41-5.66 5.66c-.7914487.7146172-2.0043628.6826249-2.7570392-.0727206-.7526765-.7553456-.7803751-1.9683652-.0629608-2.7572794l5.65-5.65c.7889142-.7174143 2.0019338-.6897157 2.7572794.0629608.7553455.7526764.7873378 1.9655905.0727206 2.7570392z" fill="#f29c1f"/><path id="Shape" d="m18.93 20.43c-1.1712702 1.1698135-3.0687298 1.1698135-4.24 0l-2.9-2.89c-.1893127-.1877666-.2957983-.4433625-.2957983-.71s.1064856-.5222334.2957983-.71l2.83-2.83c.1877666-.1893127.4433625-.2957983.71-.2957983s.5222334.1064856.71.2957983l2.89 2.9c1.1698135 1.1712702 1.1698135 3.0687298 0 4.24z" fill="#bdc3c7"/></g></svg>