<svg id="Capa_1" enable-background="new 0 0 512 512" height="512" viewBox="0 0 512 512" width="512" xmlns="http://www.w3.org/2000/svg" xmlns:xlink="http://www.w3.org/1999/xlink"><linearGradient id="SVGID_1_" gradientUnits="userSpaceOnUse" x1="225.816" x2="864.887" y1="256.003" y2="256.003"><stop offset=".0007011211" stop-color="#fff0d5"/><stop offset=".5112" stop-color="#ffdfff"/><stop offset="1" stop-color="#d9ceff"/></linearGradient><path d="m505.626 291.92c-11.826-34.61-38.138-60.16-69.852-72.202-16.43-6.239-27.346-21.856-27.587-39.429-.005-.384-.012-.769-.021-1.154-1.507-64.582-55.488-116.33-120.077-115.221-38.094.654-71.788 19.355-92.905 47.92-18.185 24.599-46.49 39.965-77.08 39.949-.898 0-1.797.009-2.7.029-61.917 1.354-114.567 54.478-115.393 116.404-.88 65.931 52.302 119.654 118.032 119.654 50.947 0 94.349-32.277 110.886-77.497 4.327-11.832 17.152-18.174 29.283-14.772.151.042.303.085.455.127 11.099 3.064 18.458 13.64 17.55 25.119-1.217 15.383.581 31.255 5.798 46.796 20.521 61.135 87.188 94.685 148.493 74.68 62.711-20.465 96.379-88.185 75.118-150.403z" fill="url(#SVGID_1_)"/><path d="m461 142.074c0-43.968-35.643-79.612-79.612-79.612-33.531 0-62.199 20.74-73.931 50.082h-239.515c-9.357 0-16.942 7.585-16.942 16.941v220.846c0 9.357 7.585 16.942 16.942 16.942h308.447c9.357 0 16.942-7.585 16.942-16.942v-129.54c38.302-5.762 67.669-38.808 67.669-78.717z" fill="#590bb2" opacity=".1"/><path d="m272.986 453.429h-101.642l13.247-52.516 7.079-28.052h60.99l7.079 28.052z" fill="#afabc6"/><path d="m259.739 400.913h-75.148l7.079-28.052h60.99z" fill="#8e8ca8"/><path d="m272.989 458.424h-101.648c-1.542 0-2.997-.711-3.944-1.927s-1.281-2.801-.903-4.296l15.997-63.397c.675-2.678 3.393-4.298 6.071-3.625 2.677.676 4.3 3.394 3.624 6.071l-14.427 57.174h88.813l-14.557-57.69c-.676-2.677.947-5.396 3.624-6.071 2.679-.673 5.396.947 6.071 3.625l16.127 63.914c.378 1.495.044 3.08-.903 4.296s-2.403 1.926-3.945 1.926z" fill="#590bb2"/><path d="m376.389 388.273h-308.447c-9.357 0-16.942-7.585-16.942-16.941v-220.846c0-9.357 7.585-16.942 16.942-16.942h308.447c9.357 0 16.941 7.585 16.941 16.942v220.846c0 9.356-7.585 16.941-16.941 16.941z" fill="#f5f4f9"/><path d="m393.327 150.482v104.954c-3.897.583-7.876.89-11.937.89-43.972 0-79.618-35.646-79.618-79.608 0-15.915 4.664-30.737 12.714-43.174h61.903c9.359-.001 16.938 7.589 16.938 16.938z" fill="#e8e6ed"/><path d="m269.133 147.679h81.991v195.435h-81.991z" fill="#ffd5b8"/><path d="m351.125 147.679v102.684c-28.967-11.906-49.352-40.402-49.352-73.645 0-10.249 1.933-20.038 5.462-29.039z" fill="#ffbe92"/><path d="m364.852 343.116h-109.444v-80.913c0-1.695 1.374-3.069 3.069-3.069h103.308c1.695 0 3.069 1.374 3.069 3.069v80.913z" fill="#e2ccff"/><path d="m364.852 283.668h-109.444v-21.464c0-1.695 1.374-3.069 3.069-3.069h103.308c1.695 0 3.069 1.374 3.069 3.069v21.464z" fill="#c182f9"/><path d="m393.33 176.713v-26.227c0-9.357-7.585-16.942-16.941-16.942h-308.447c-9.356 0-16.942 7.585-16.942 16.942v26.227z" fill="#c182f9"/><path d="m301.772 181.713h-250.772c-2.762 0-5-2.239-5-5s2.238-5 5-5h250.772c2.762 0 5 2.239 5 5s-2.238 5-5 5z" fill="#590bb2"/><path d="m51 343.116v28.215c0 9.357 7.585 16.941 16.942 16.941h308.447c9.356 0 16.941-7.585 16.941-16.941v-28.215z" fill="#cecae0"/><g fill="#590bb2"><path d="m290.214 458.424h-136.097c-2.762 0-5-2.239-5-5s2.238-5 5-5h136.097c2.762 0 5 2.239 5 5s-2.238 5-5 5z"/><path d="m85.127 160.194c-2.762 0-5-2.239-5-5v-.13c0-2.761 2.238-5 5-5s5 2.239 5 5v.13c0 2.761-2.238 5-5 5z"/><path d="m102.445 160.194c-2.762 0-5-2.239-5-5v-.13c0-2.761 2.238-5 5-5s5 2.239 5 5v.13c0 2.761-2.238 5-5 5z"/><path d="m119.764 160.194c-2.762 0-5-2.239-5-5v-.13c0-2.761 2.238-5 5-5s5 2.239 5 5v.13c0 2.761-2.239 5-5 5z"/><path d="m376.389 393.273h-308.448c-12.098 0-21.941-9.843-21.941-21.942v-28.215c0-2.761 2.238-5 5-5h337.33v-94.178c0-2.761 2.238-5 5-5s5 2.239 5 5v127.393c0 12.099-9.843 21.942-21.941 21.942zm-320.389-45.157v23.215c0 6.585 5.356 11.942 11.941 11.942h308.447c6.585 0 11.941-5.357 11.941-11.942v-23.215z"/><path d="m51 319.947c-2.762 0-5-2.239-5-5v-164.461c0-12.099 9.843-21.941 21.941-21.941h211.479c2.762 0 5 2.239 5 5s-2.238 5-5 5h-211.479c-6.585 0-11.941 5.357-11.941 11.941v164.461c0 2.761-2.238 5-5 5z"/></g><circle cx="381.388" cy="163.074" fill="#ffa052" r="79.612"/><path d="m381.389 247.685c-46.655 0-84.612-37.957-84.612-84.612s37.957-84.611 84.612-84.611 84.611 37.957 84.611 84.611c0 46.656-37.956 84.612-84.611 84.612zm0-159.223c-41.142 0-74.612 33.471-74.612 74.611 0 41.141 33.471 74.612 74.612 74.612s74.611-33.471 74.611-74.612c0-41.14-33.471-74.611-74.611-74.611z" fill="#590bb2"/><circle cx="381.388" cy="163.074" fill="#fff4c5" r="59.029"/><path d="m369.967 189.668c-2.035 0-3.986-.808-5.425-2.247l-15.683-15.684c-2.996-2.996-2.996-7.853 0-10.849 2.998-2.997 7.854-2.996 10.85 0l10.258 10.259 33.103-33.103c2.998-2.996 7.854-2.996 10.85 0s2.996 7.853 0 10.849l-38.528 38.527c-1.44 1.44-3.391 2.248-5.425 2.248z" fill="#ffa052"/><path d="m179.212 243.938h-89.98c-2.829 0-5.123-2.294-5.123-5.123s2.293-5.123 5.123-5.123h89.981c2.829 0 5.123 2.294 5.123 5.123-.001 2.829-2.294 5.123-5.124 5.123z" fill="#ddd9e4"/><path d="m229.098 243.938h-24.577c-2.829 0-5.123-2.294-5.123-5.123s2.293-5.123 5.123-5.123h24.577c2.829 0 5.123 2.294 5.123 5.123s-2.293 5.123-5.123 5.123z" fill="#ffbe92"/><path d="m229.098 264.258h-139.866c-2.829 0-5.123-2.294-5.123-5.123s2.293-5.123 5.123-5.123h139.866c2.829 0 5.123 2.294 5.123 5.123s-2.293 5.123-5.123 5.123z" fill="#ddd9e4"/><path d="m94.918 222.699c-1.326 0-2.598-.527-3.535-1.464l-6.978-6.978c-1.953-1.953-1.953-5.119 0-7.071 1.951-1.952 5.119-1.952 7.07 0l3.442 3.442 12.28-12.28c1.951-1.952 5.119-1.952 7.07 0 1.953 1.953 1.953 5.119 0 7.071l-15.815 15.816c-.936.937-2.208 1.464-3.534 1.464z" fill="#b557ff"/><path d="m117.841 325.723h-28.61c-2.829 0-5.123-2.294-5.123-5.123s2.293-5.123 5.123-5.123h28.61c2.829 0 5.123 2.294 5.123 5.123s-2.293 5.123-5.123 5.123z" fill="#ddd9e4"/><path d="m229.098 325.723h-85.948c-2.829 0-5.123-2.294-5.123-5.123s2.293-5.123 5.123-5.123h85.948c2.829 0 5.123 2.294 5.123 5.123s-2.293 5.123-5.123 5.123z" fill="#ffbe92"/><path d="m94.918 304.484c-1.326 0-2.598-.527-3.536-1.464l-6.978-6.978c-1.952-1.953-1.952-5.119.001-7.071 1.951-1.952 5.118-1.952 7.071 0l3.441 3.442 12.28-12.28c1.951-1.952 5.119-1.952 7.07 0 1.953 1.953 1.953 5.119 0 7.071l-15.814 15.816c-.937.937-2.209 1.464-3.535 1.464z" fill="#b557ff"/><path d="m209.433 85.612c-1.326 0-2.598-.527-3.535-1.464l-11.019-11.018c-.938-.938-1.465-2.209-1.465-3.536s.526-2.598 1.465-3.536l11.019-11.018c.938-.938 2.209-1.464 3.535-1.464 1.326 0 2.598.527 3.535 1.464l11.018 11.018c1.953 1.953 1.953 5.119 0 7.071l-11.018 11.018c-.938.938-2.209 1.465-3.535 1.465zm-3.948-16.018 3.947 3.947 3.946-3.947-3.946-3.947z" fill="#ffa052"/><path d="m436.299 304.007c-2.762 0-5-2.239-5-5 0-3.318-2.7-6.018-6.019-6.018-2.762 0-5-2.239-5-5s2.238-5 5-5c3.318 0 6.019-2.7 6.019-6.018 0-2.761 2.238-5 5-5s5 2.239 5 5c0 3.318 2.699 6.018 6.018 6.018 2.762 0 5 2.239 5 5s-2.238 5-5 5c-3.318 0-6.018 2.7-6.018 6.018 0 2.761-2.238 5-5 5z" fill="#c182f9"/><path d="m171.165 103.717c-2.762 0-5-2.239-5-5 0-3.318-2.699-6.018-6.018-6.018-2.762 0-5-2.239-5-5s2.238-5 5-5c3.318 0 6.018-2.7 6.018-6.018 0-2.761 2.238-5 5-5s5 2.239 5 5c0 3.318 2.699 6.018 6.018 6.018 2.762 0 5 2.239 5 5s-2.238 5-5 5c-3.318 0-6.018 2.7-6.018 6.018 0 2.761-2.238 5-5 5z" fill="#ffe783"/><path d="m373.439 434.068c-2.762 0-5-2.239-5-5 0-3.318-2.7-6.018-6.019-6.018-2.762 0-5-2.239-5-5s2.238-5 5-5c3.318 0 6.019-2.7 6.019-6.018 0-2.761 2.238-5 5-5s5 2.239 5 5c0 3.318 2.699 6.018 6.018 6.018 2.762 0 5 2.239 5 5s-2.238 5-5 5c-3.318 0-6.018 2.7-6.018 6.018 0 2.761-2.238 5-5 5z" fill="#ffa052"/><circle cx="327.04" cy="300.156" fill="#f5f4f9" r="5.59"/><circle cx="310.13" cy="300.156" fill="#f5f4f9" r="5.59"/><circle cx="293.22" cy="300.156" fill="#f5f4f9" r="5.59"/></svg>